<?xml version="1.0" encoding="UTF-8" standalone="no"?>
<!DOCTYPE svg PUBLIC "-//W3C//DTD SVG 1.1//EN" "http://www.w3.org/Graphics/SVG/1.1/DTD/svg11.dtd">
<!-- Created with Vectornator (http://vectornator.io/) -->
<svg height="100%" stroke-miterlimit="10" style="fill-rule:nonzero;clip-rule:evenodd;stroke-linecap:round;stroke-linejoin:round;" version="1.1" viewBox="0 0 510.669 318.654" width="100%" xml:space="preserve" xmlns="http://www.w3.org/2000/svg" xmlns:xlink="http://www.w3.org/1999/xlink">
<defs/>
<g id="Ebene-1"/>
<clipPath id="ArtboardFrame">
<rect height="318.654" width="510.669" x="0" y="0"/>
</clipPath>
<g clip-path="url(#ArtboardFrame)" id="Ebene-2">
<g opacity="1">
<path d="M302.392 79.0131L318.416 79.0876L320.172 105.143L300.599 105.143L302.392 79.0131Z" fill="#d5d5d5" fill-rule="evenodd" opacity="1" stroke="#000000" stroke-linecap="round" stroke-linejoin="round" stroke-width="1"/>
<g opacity="1">
<path d="M249.096 0L372.096 0C374.191 0 375.889 1.5929 375.889 3.55785L375.889 76.6709C375.889 78.6358 374.191 80.2287 372.096 80.2287L249.096 80.2287C247.001 80.2287 245.303 78.6358 245.303 76.6709L245.303 3.55785C245.303 1.5929 247.001 0 249.096 0Z" fill="#d5d5d5" fill-rule="evenodd" opacity="1" stroke="#000000" stroke-linecap="round" stroke-linejoin="round" stroke-width="1"/>
<path d="M248.518 2.21293L372.861 2.21293L372.861 74.3051L248.518 74.3051L248.518 2.21293Z" fill="#000000" fill-rule="evenodd" opacity="1" stroke="#000000" stroke-linecap="round" stroke-linejoin="round" stroke-width="1"/>
</g>
<path d="M250.931 5.24834L259.488 5.24834L259.488 9.05141L250.931 9.05141L250.931 5.24834Z" fill="#ffffff" fill-rule="evenodd" opacity="1" stroke="none"/>
<path d="M256.26 21.5289L264.817 21.5289L264.817 25.332L256.26 25.332L256.26 21.5289Z" fill="#ffffff" fill-rule="evenodd" opacity="1" stroke="none"/>
<path d="M266.601 5.24834L275.158 5.24834L275.158 9.05141L266.601 9.05141L266.601 5.24834Z" fill="#ffffff" fill-rule="evenodd" opacity="1" stroke="none"/>
<path d="M276.513 5.28227L287.922 5.28227L287.922 9.08534L276.513 9.08534L276.513 5.28227Z" fill="#ffffff" fill-rule="evenodd" opacity="1" stroke="none"/>
<path d="M266.445 21.5289L277.854 21.5289L277.854 25.332L266.445 25.332L266.445 21.5289Z" fill="#ffffff" fill-rule="evenodd" opacity="1" stroke="none"/>
<path d="M256.54 13.3184L267.949 13.3184L267.949 17.1215L256.54 17.1215L256.54 13.3184Z" fill="#ffffff" fill-rule="evenodd" opacity="1" stroke="none"/>
<path d="M261.083 5.24834L264.886 5.24834L264.886 9.05141L261.083 9.05141L261.083 5.24834Z" fill="#ffffff" fill-rule="evenodd" opacity="1" stroke="none"/>
<path d="M250.931 21.5289L254.734 21.5289L254.734 25.332L250.931 25.332L250.931 21.5289Z" fill="#ffffff" fill-rule="evenodd" opacity="1" stroke="none"/>
<path d="M269.448 13.3184L273.251 13.3184L273.251 17.1215L269.448 17.1215L269.448 13.3184Z" fill="#ffffff" fill-rule="evenodd" opacity="1" stroke="none"/>
<path d="M278.925 21.5289L282.728 21.5289L282.728 25.332L278.925 25.332L278.925 21.5289Z" fill="#ffffff" fill-rule="evenodd" opacity="1" stroke="none"/>
<path d="M250.931 13.3184L254.734 13.3184L254.734 17.1215L250.931 17.1215L250.931 13.3184Z" fill="#ffffff" fill-rule="evenodd" opacity="1" stroke="none"/>
</g>
<g opacity="1">
<path d="M417.684 292.518L433.708 292.592L435.464 318.648L415.891 318.648L417.684 292.518Z" fill="#d5d5d5" fill-rule="evenodd" opacity="1" stroke="#000000" stroke-linecap="round" stroke-linejoin="round" stroke-width="1"/>
<g opacity="1">
<path d="M364.388 213.505L487.389 213.505C489.483 213.505 491.181 215.097 491.181 217.062L491.181 290.175C491.181 292.14 489.483 293.733 487.389 293.733L364.388 293.733C362.293 293.733 360.595 292.14 360.595 290.175L360.595 217.062C360.595 215.097 362.293 213.505 364.388 213.505Z" fill="#d5d5d5" fill-rule="evenodd" opacity="1" stroke="#000000" stroke-linecap="round" stroke-linejoin="round" stroke-width="1"/>
<path d="M363.811 215.718L488.153 215.718L488.153 287.81L363.811 287.81L363.811 215.718Z" fill="#000000" fill-rule="evenodd" opacity="1" stroke="#000000" stroke-linecap="round" stroke-linejoin="round" stroke-width="1"/>
</g>
<path d="M366.223 218.753L374.78 218.753L374.78 222.556L366.223 222.556L366.223 218.753Z" fill="#ffffff" fill-rule="evenodd" opacity="1" stroke="none"/>
<path d="M371.552 235.034L380.109 235.034L380.109 238.837L371.552 238.837L371.552 235.034Z" fill="#ffffff" fill-rule="evenodd" opacity="1" stroke="none"/>
<path d="M381.894 218.753L390.451 218.753L390.451 222.556L381.894 222.556L381.894 218.753Z" fill="#ffffff" fill-rule="evenodd" opacity="1" stroke="none"/>
<path d="M391.806 218.787L403.215 218.787L403.215 222.59L391.806 222.59L391.806 218.787Z" fill="#ffffff" fill-rule="evenodd" opacity="1" stroke="none"/>
<path d="M381.737 235.034L393.146 235.034L393.146 238.837L381.737 238.837L381.737 235.034Z" fill="#ffffff" fill-rule="evenodd" opacity="1" stroke="none"/>
<path d="M371.832 226.823L383.242 226.823L383.242 230.626L371.832 230.626L371.832 226.823Z" fill="#ffffff" fill-rule="evenodd" opacity="1" stroke="none"/>
<path d="M376.375 218.753L380.178 218.753L380.178 222.556L376.375 222.556L376.375 218.753Z" fill="#ffffff" fill-rule="evenodd" opacity="1" stroke="none"/>
<path d="M366.223 235.034L370.026 235.034L370.026 238.837L366.223 238.837L366.223 235.034Z" fill="#ffffff" fill-rule="evenodd" opacity="1" stroke="none"/>
<path d="M384.741 226.823L388.544 226.823L388.544 230.626L384.741 230.626L384.741 226.823Z" fill="#ffffff" fill-rule="evenodd" opacity="1" stroke="none"/>
<path d="M394.217 235.034L398.02 235.034L398.02 238.837L394.217 238.837L394.217 235.034Z" fill="#ffffff" fill-rule="evenodd" opacity="1" stroke="none"/>
<path d="M366.223 226.823L370.026 226.823L370.026 230.626L366.223 230.626L366.223 226.823Z" fill="#ffffff" fill-rule="evenodd" opacity="1" stroke="none"/>
</g>
<g opacity="1">
<path d="M73.3837 79.0131L89.4077 79.0876L91.1639 105.143L71.5906 105.143L73.3837 79.0131Z" fill="#d5d5d5" fill-rule="evenodd" opacity="1" stroke="#000000" stroke-linecap="round" stroke-linejoin="round" stroke-width="1"/>
<g opacity="1">
<path d="M20.0877 0L143.088 0C145.183 0 146.881 1.5929 146.881 3.55785L146.881 76.6709C146.881 78.6358 145.183 80.2287 143.088 80.2287L20.0877 80.2287C17.993 80.2287 16.2949 78.6358 16.2949 76.6709L16.2949 3.55785C16.2949 1.5929 17.993 0 20.0877 0Z" fill="#d5d5d5" fill-rule="evenodd" opacity="1" stroke="#000000" stroke-linecap="round" stroke-linejoin="round" stroke-width="1"/>
<path d="M19.5104 2.21293L143.853 2.21293L143.853 74.3051L19.5104 74.3051L19.5104 2.21293Z" fill="#000000" fill-rule="evenodd" opacity="1" stroke="#000000" stroke-linecap="round" stroke-linejoin="round" stroke-width="1"/>
</g>
<path d="M21.9228 5.24834L30.4797 5.24834L30.4797 9.05141L21.9228 9.05141L21.9228 5.24834Z" fill="#ffffff" fill-rule="evenodd" opacity="1" stroke="none"/>
<path d="M27.2517 21.5289L35.8086 21.5289L35.8086 25.332L27.2517 25.332L27.2517 21.5289Z" fill="#ffffff" fill-rule="evenodd" opacity="1" stroke="none"/>
<path d="M37.5935 5.24834L46.1504 5.24834L46.1504 9.05141L37.5935 9.05141L37.5935 5.24834Z" fill="#ffffff" fill-rule="evenodd" opacity="1" stroke="none"/>
<path d="M47.5052 5.28227L58.9144 5.28227L58.9144 9.08534L47.5052 9.08534L47.5052 5.28227Z" fill="#ffffff" fill-rule="evenodd" opacity="1" stroke="none"/>
<path d="M37.4366 21.5289L48.8458 21.5289L48.8458 25.332L37.4366 25.332L37.4366 21.5289Z" fill="#ffffff" fill-rule="evenodd" opacity="1" stroke="none"/>
<path d="M27.532 13.3184L38.9412 13.3184L38.9412 17.1215L27.532 17.1215L27.532 13.3184Z" fill="#ffffff" fill-rule="evenodd" opacity="1" stroke="none"/>
<path d="M32.075 5.24834L35.8781 5.24834L35.8781 9.05141L32.075 9.05141L32.075 5.24834Z" fill="#ffffff" fill-rule="evenodd" opacity="1" stroke="none"/>
<path d="M21.9228 21.5289L25.7258 21.5289L25.7258 25.332L21.9228 25.332L21.9228 21.5289Z" fill="#ffffff" fill-rule="evenodd" opacity="1" stroke="none"/>
<path d="M40.4402 13.3184L44.2433 13.3184L44.2433 17.1215L40.4402 17.1215L40.4402 13.3184Z" fill="#ffffff" fill-rule="evenodd" opacity="1" stroke="none"/>
<path d="M49.9166 21.5289L53.7197 21.5289L53.7197 25.332L49.9166 25.332L49.9166 21.5289Z" fill="#ffffff" fill-rule="evenodd" opacity="1" stroke="none"/>
<path d="M21.9228 13.3184L25.7258 13.3184L25.7258 17.1215L21.9228 17.1215L21.9228 13.3184Z" fill="#ffffff" fill-rule="evenodd" opacity="1" stroke="none"/>
</g>
<g opacity="1">
<path d="M188.676 292.518L204.7 292.592L206.456 318.648L186.883 318.648L188.676 292.518Z" fill="#d5d5d5" fill-rule="evenodd" opacity="1" stroke="#000000" stroke-linecap="round" stroke-linejoin="round" stroke-width="1"/>
<g opacity="1">
<path d="M135.38 213.505L258.381 213.505C260.475 213.505 262.173 215.097 262.173 217.062L262.173 290.175C262.173 292.14 260.475 293.733 258.381 293.733L135.38 293.733C133.286 293.733 131.587 292.14 131.587 290.175L131.587 217.062C131.587 215.097 133.286 213.505 135.38 213.505Z" fill="#d5d5d5" fill-rule="evenodd" opacity="1" stroke="#000000" stroke-linecap="round" stroke-linejoin="round" stroke-width="1"/>
<path d="M134.803 215.718L259.145 215.718L259.145 287.81L134.803 287.81L134.803 215.718Z" fill="#000000" fill-rule="evenodd" opacity="1" stroke="#000000" stroke-linecap="round" stroke-linejoin="round" stroke-width="1"/>
</g>
<path d="M137.215 218.753L145.772 218.753L145.772 222.556L137.215 222.556L137.215 218.753Z" fill="#ffffff" fill-rule="evenodd" opacity="1" stroke="none"/>
<path d="M142.544 235.034L151.101 235.034L151.101 238.837L142.544 238.837L142.544 235.034Z" fill="#ffffff" fill-rule="evenodd" opacity="1" stroke="none"/>
<path d="M152.886 218.753L161.443 218.753L161.443 222.556L152.886 222.556L152.886 218.753Z" fill="#ffffff" fill-rule="evenodd" opacity="1" stroke="none"/>
<path d="M162.798 218.787L174.207 218.787L174.207 222.59L162.798 222.59L162.798 218.787Z" fill="#ffffff" fill-rule="evenodd" opacity="1" stroke="none"/>
<path d="M152.729 235.034L164.138 235.034L164.138 238.837L152.729 238.837L152.729 235.034Z" fill="#ffffff" fill-rule="evenodd" opacity="1" stroke="none"/>
<path d="M142.825 226.823L154.234 226.823L154.234 230.626L142.825 230.626L142.825 226.823Z" fill="#ffffff" fill-rule="evenodd" opacity="1" stroke="none"/>
<path d="M147.367 218.753L151.171 218.753L151.171 222.556L147.367 222.556L147.367 218.753Z" fill="#ffffff" fill-rule="evenodd" opacity="1" stroke="none"/>
<path d="M137.215 235.034L141.018 235.034L141.018 238.837L137.215 238.837L137.215 235.034Z" fill="#ffffff" fill-rule="evenodd" opacity="1" stroke="none"/>
<path d="M155.733 226.823L159.536 226.823L159.536 230.626L155.733 230.626L155.733 226.823Z" fill="#ffffff" fill-rule="evenodd" opacity="1" stroke="none"/>
<path d="M165.209 235.034L169.012 235.034L169.012 238.837L165.209 238.837L165.209 235.034Z" fill="#ffffff" fill-rule="evenodd" opacity="1" stroke="none"/>
<path d="M137.215 226.823L141.018 226.823L141.018 230.626L137.215 230.626L137.215 226.823Z" fill="#ffffff" fill-rule="evenodd" opacity="1" stroke="none"/>
</g>
<g opacity="1">
<path d="M507.663 159.326C487.339 159.326 3.00925 159.326 3.00925 159.326" fill="none" stroke="#000000" stroke-linecap="round" stroke-linejoin="round" stroke-width="4"/>
<g fill="#000000" stroke="none">
<path d="M4.00921 147.326L0.00920939 147.326L0.00929466 171.326L4.00929 171.326L4.00921 147.326Z" fill="#000000"/>
<path d="M506.663 171.326L510.663 171.326L510.663 147.326L506.663 147.326L506.663 171.326Z" fill="#000000"/>
</g>
</g>
<path d="M81.5944 105.678L81.5944 159.326" fill="none" fill-rule="evenodd" opacity="1" stroke="#000000" stroke-linecap="round" stroke-linejoin="round" stroke-width="4"/>
<path d="M196.771 159.326L196.771 212.935" fill="none" fill-rule="evenodd" opacity="1" stroke="#000000" stroke-linecap="round" stroke-linejoin="round" stroke-width="4"/>
<path d="M310.431 159.326L310.431 105.678" fill="none" fill-rule="evenodd" opacity="1" stroke="#000000" stroke-linecap="round" stroke-linejoin="round" stroke-width="4"/>
<path d="M425.987 159.326L425.987 212.935" fill="none" fill-rule="evenodd" opacity="1" stroke="#000000" stroke-linecap="round" stroke-linejoin="round" stroke-width="4"/>
</g>
</svg>
