<?xml version="1.0" encoding="UTF-8" standalone="no"?>
<!DOCTYPE svg PUBLIC "-//W3C//DTD SVG 1.1//EN" "http://www.w3.org/Graphics/SVG/1.1/DTD/svg11.dtd">
<!-- Created with Vectornator (http://vectornator.io/) -->
<svg height="100%" stroke-miterlimit="10" style="fill-rule:nonzero;clip-rule:evenodd;stroke-linecap:round;stroke-linejoin:round;" version="1.1" viewBox="0 0 387.63 362.54" width="100%" xml:space="preserve" xmlns="http://www.w3.org/2000/svg" xmlns:xlink="http://www.w3.org/1999/xlink">
<defs/>
<g id="Ebene-1">
<path d="M65.5689 40.5685L322.368 40.5685L322.368 297.367L65.5689 297.367L65.5689 40.5685Z" fill="none" fill-rule="evenodd" opacity="1" stroke="#000000" stroke-linecap="round" stroke-linejoin="round" stroke-width="4"/>
<path d="M65.5689 297.367L322.368 40.5685" fill="none" fill-rule="evenodd" opacity="1" stroke="#000000" stroke-linecap="round" stroke-linejoin="round" stroke-width="4"/>
<path d="M65.5689 40.5685L322.368 297.367" fill="none" fill-rule="evenodd" opacity="1" stroke="#000000" stroke-linecap="round" stroke-linejoin="round" stroke-width="4"/>
</g>
<clipPath id="ArtboardFrame">
<rect height="362.54" width="387.63" x="0" y="0"/>
</clipPath>
<g clip-path="url(#ArtboardFrame)" id="Ebene-2">
<g opacity="1">
<path d="M314.142 79.0131L330.166 79.0876L331.922 105.143L312.349 105.143L314.142 79.0131Z" fill="#d5d5d5" fill-rule="evenodd" opacity="1" stroke="#000000" stroke-linecap="round" stroke-linejoin="round" stroke-width="1"/>
<g opacity="1">
<path d="M260.846 0L383.846 0C385.941 0 387.639 1.5929 387.639 3.55785L387.639 76.6709C387.639 78.6358 385.941 80.2287 383.846 80.2287L260.846 80.2287C258.751 80.2287 257.053 78.6358 257.053 76.6709L257.053 3.55785C257.053 1.5929 258.751 0 260.846 0Z" fill="#d5d5d5" fill-rule="evenodd" opacity="1" stroke="#000000" stroke-linecap="round" stroke-linejoin="round" stroke-width="1"/>
<path d="M260.268 2.21293L384.611 2.21293L384.611 74.3051L260.268 74.3051L260.268 2.21293Z" fill="#000000" fill-rule="evenodd" opacity="1" stroke="#000000" stroke-linecap="round" stroke-linejoin="round" stroke-width="1"/>
</g>
<path d="M262.681 5.24834L271.238 5.24834L271.238 9.05141L262.681 9.05141L262.681 5.24834Z" fill="#ffffff" fill-rule="evenodd" opacity="1" stroke="none"/>
<path d="M268.01 21.5289L276.567 21.5289L276.567 25.332L268.01 25.332L268.01 21.5289Z" fill="#ffffff" fill-rule="evenodd" opacity="1" stroke="none"/>
<path d="M278.352 5.24834L286.908 5.24834L286.908 9.05141L278.352 9.05141L278.352 5.24834Z" fill="#ffffff" fill-rule="evenodd" opacity="1" stroke="none"/>
<path d="M288.263 5.28227L299.672 5.28227L299.672 9.08534L288.263 9.08534L288.263 5.28227Z" fill="#ffffff" fill-rule="evenodd" opacity="1" stroke="none"/>
<path d="M278.195 21.5289L289.604 21.5289L289.604 25.332L278.195 25.332L278.195 21.5289Z" fill="#ffffff" fill-rule="evenodd" opacity="1" stroke="none"/>
<path d="M268.29 13.3184L279.699 13.3184L279.699 17.1215L268.29 17.1215L268.29 13.3184Z" fill="#ffffff" fill-rule="evenodd" opacity="1" stroke="none"/>
<path d="M272.833 5.24834L276.636 5.24834L276.636 9.05141L272.833 9.05141L272.833 5.24834Z" fill="#ffffff" fill-rule="evenodd" opacity="1" stroke="none"/>
<path d="M262.681 21.5289L266.484 21.5289L266.484 25.332L262.681 25.332L262.681 21.5289Z" fill="#ffffff" fill-rule="evenodd" opacity="1" stroke="none"/>
<path d="M281.198 13.3184L285.001 13.3184L285.001 17.1215L281.198 17.1215L281.198 13.3184Z" fill="#ffffff" fill-rule="evenodd" opacity="1" stroke="none"/>
<path d="M290.675 21.5289L294.478 21.5289L294.478 25.332L290.675 25.332L290.675 21.5289Z" fill="#ffffff" fill-rule="evenodd" opacity="1" stroke="none"/>
<path d="M262.681 13.3184L266.484 13.3184L266.484 17.1215L262.681 17.1215L262.681 13.3184Z" fill="#ffffff" fill-rule="evenodd" opacity="1" stroke="none"/>
</g>
<g opacity="1">
<path d="M314.138 336.41L330.162 336.484L331.918 362.54L312.345 362.54L314.138 336.41Z" fill="#d5d5d5" fill-rule="evenodd" opacity="1" stroke="#000000" stroke-linecap="round" stroke-linejoin="round" stroke-width="1"/>
<g opacity="1">
<path d="M260.842 257.397L383.843 257.397C385.937 257.397 387.635 258.99 387.635 260.954L387.635 334.067C387.635 336.032 385.937 337.625 383.843 337.625L260.842 337.625C258.748 337.625 257.049 336.032 257.049 334.067L257.049 260.954C257.049 258.99 258.748 257.397 260.842 257.397Z" fill="#d5d5d5" fill-rule="evenodd" opacity="1" stroke="#000000" stroke-linecap="round" stroke-linejoin="round" stroke-width="1"/>
<path d="M260.265 259.61L384.607 259.61L384.607 331.702L260.265 331.702L260.265 259.61Z" fill="#000000" fill-rule="evenodd" opacity="1" stroke="#000000" stroke-linecap="round" stroke-linejoin="round" stroke-width="1"/>
</g>
<path d="M262.677 262.645L271.234 262.645L271.234 266.448L262.677 266.448L262.677 262.645Z" fill="#ffffff" fill-rule="evenodd" opacity="1" stroke="none"/>
<path d="M268.006 278.926L276.563 278.926L276.563 282.729L268.006 282.729L268.006 278.926Z" fill="#ffffff" fill-rule="evenodd" opacity="1" stroke="none"/>
<path d="M278.348 262.645L286.905 262.645L286.905 266.448L278.348 266.448L278.348 262.645Z" fill="#ffffff" fill-rule="evenodd" opacity="1" stroke="none"/>
<path d="M288.26 262.679L299.669 262.679L299.669 266.482L288.26 266.482L288.26 262.679Z" fill="#ffffff" fill-rule="evenodd" opacity="1" stroke="none"/>
<path d="M278.191 278.926L289.6 278.926L289.6 282.729L278.191 282.729L278.191 278.926Z" fill="#ffffff" fill-rule="evenodd" opacity="1" stroke="none"/>
<path d="M268.287 270.715L279.696 270.715L279.696 274.518L268.287 274.518L268.287 270.715Z" fill="#ffffff" fill-rule="evenodd" opacity="1" stroke="none"/>
<path d="M272.83 262.645L276.633 262.645L276.633 266.448L272.83 266.448L272.83 262.645Z" fill="#ffffff" fill-rule="evenodd" opacity="1" stroke="none"/>
<path d="M262.677 278.926L266.48 278.926L266.48 282.729L262.677 282.729L262.677 278.926Z" fill="#ffffff" fill-rule="evenodd" opacity="1" stroke="none"/>
<path d="M281.195 270.715L284.998 270.715L284.998 274.518L281.195 274.518L281.195 270.715Z" fill="#ffffff" fill-rule="evenodd" opacity="1" stroke="none"/>
<path d="M290.671 278.926L294.474 278.926L294.474 282.729L290.671 282.729L290.671 278.926Z" fill="#ffffff" fill-rule="evenodd" opacity="1" stroke="none"/>
<path d="M262.677 270.715L266.48 270.715L266.48 274.518L262.677 274.518L262.677 270.715Z" fill="#ffffff" fill-rule="evenodd" opacity="1" stroke="none"/>
</g>
<g opacity="1">
<path d="M57.0888 79.0131L73.1128 79.0876L74.869 105.143L55.2957 105.143L57.0888 79.0131Z" fill="#d5d5d5" fill-rule="evenodd" opacity="1" stroke="#000000" stroke-linecap="round" stroke-linejoin="round" stroke-width="1"/>
<g opacity="1">
<path d="M3.79281 0L126.793 0C128.888 0 130.586 1.5929 130.586 3.55785L130.586 76.6709C130.586 78.6358 128.888 80.2287 126.793 80.2287L3.79281 80.2287C1.6981 80.2287 0 78.6358 0 76.6709L0 3.55785C0 1.5929 1.6981 0 3.79281 0Z" fill="#d5d5d5" fill-rule="evenodd" opacity="1" stroke="#000000" stroke-linecap="round" stroke-linejoin="round" stroke-width="1"/>
<path d="M3.21545 2.21293L127.558 2.21293L127.558 74.3051L3.21545 74.3051L3.21545 2.21293Z" fill="#000000" fill-rule="evenodd" opacity="1" stroke="#000000" stroke-linecap="round" stroke-linejoin="round" stroke-width="1"/>
</g>
<path d="M5.62785 5.24834L14.1848 5.24834L14.1848 9.05141L5.62785 9.05141L5.62785 5.24834Z" fill="#ffffff" fill-rule="evenodd" opacity="1" stroke="none"/>
<path d="M10.9568 21.5289L19.5137 21.5289L19.5137 25.332L10.9568 25.332L10.9568 21.5289Z" fill="#ffffff" fill-rule="evenodd" opacity="1" stroke="none"/>
<path d="M21.2986 5.24834L29.8555 5.24834L29.8555 9.05141L21.2986 9.05141L21.2986 5.24834Z" fill="#ffffff" fill-rule="evenodd" opacity="1" stroke="none"/>
<path d="M31.2103 5.28227L42.6195 5.28227L42.6195 9.08534L31.2103 9.08534L31.2103 5.28227Z" fill="#ffffff" fill-rule="evenodd" opacity="1" stroke="none"/>
<path d="M21.1417 21.5289L32.5509 21.5289L32.5509 25.332L21.1417 25.332L21.1417 21.5289Z" fill="#ffffff" fill-rule="evenodd" opacity="1" stroke="none"/>
<path d="M11.2371 13.3184L22.6463 13.3184L22.6463 17.1215L11.2371 17.1215L11.2371 13.3184Z" fill="#ffffff" fill-rule="evenodd" opacity="1" stroke="none"/>
<path d="M15.7801 5.24834L19.5831 5.24834L19.5831 9.05141L15.7801 9.05141L15.7801 5.24834Z" fill="#ffffff" fill-rule="evenodd" opacity="1" stroke="none"/>
<path d="M5.62785 21.5289L9.43092 21.5289L9.43092 25.332L5.62785 25.332L5.62785 21.5289Z" fill="#ffffff" fill-rule="evenodd" opacity="1" stroke="none"/>
<path d="M24.1453 13.3184L27.9484 13.3184L27.9484 17.1215L24.1453 17.1215L24.1453 13.3184Z" fill="#ffffff" fill-rule="evenodd" opacity="1" stroke="none"/>
<path d="M33.6217 21.5289L37.4248 21.5289L37.4248 25.332L33.6217 25.332L33.6217 21.5289Z" fill="#ffffff" fill-rule="evenodd" opacity="1" stroke="none"/>
<path d="M5.62785 13.3184L9.43092 13.3184L9.43092 17.1215L5.62785 17.1215L5.62785 13.3184Z" fill="#ffffff" fill-rule="evenodd" opacity="1" stroke="none"/>
</g>
<g opacity="1">
<path d="M57.0888 336.403L73.1128 336.477L74.869 362.533L55.2957 362.533L57.0888 336.403Z" fill="#d5d5d5" fill-rule="evenodd" opacity="1" stroke="#000000" stroke-linecap="round" stroke-linejoin="round" stroke-width="1"/>
<g opacity="1">
<path d="M3.79281 257.39L126.793 257.39C128.888 257.39 130.586 258.983 130.586 260.948L130.586 334.061C130.586 336.025 128.888 337.618 126.793 337.618L3.79281 337.618C1.6981 337.618 0 336.025 0 334.061L0 260.948C0 258.983 1.6981 257.39 3.79281 257.39Z" fill="#d5d5d5" fill-rule="evenodd" opacity="1" stroke="#000000" stroke-linecap="round" stroke-linejoin="round" stroke-width="1"/>
<path d="M3.21545 259.603L127.558 259.603L127.558 331.695L3.21545 331.695L3.21545 259.603Z" fill="#000000" fill-rule="evenodd" opacity="1" stroke="#000000" stroke-linecap="round" stroke-linejoin="round" stroke-width="1"/>
</g>
<path d="M5.62785 262.638L14.1848 262.638L14.1848 266.441L5.62785 266.441L5.62785 262.638Z" fill="#ffffff" fill-rule="evenodd" opacity="1" stroke="none"/>
<path d="M10.9568 278.919L19.5137 278.919L19.5137 282.722L10.9568 282.722L10.9568 278.919Z" fill="#ffffff" fill-rule="evenodd" opacity="1" stroke="none"/>
<path d="M21.2986 262.638L29.8555 262.638L29.8555 266.441L21.2986 266.441L21.2986 262.638Z" fill="#ffffff" fill-rule="evenodd" opacity="1" stroke="none"/>
<path d="M31.2103 262.672L42.6195 262.672L42.6195 266.475L31.2103 266.475L31.2103 262.672Z" fill="#ffffff" fill-rule="evenodd" opacity="1" stroke="none"/>
<path d="M21.1417 278.919L32.5509 278.919L32.5509 282.722L21.1417 282.722L21.1417 278.919Z" fill="#ffffff" fill-rule="evenodd" opacity="1" stroke="none"/>
<path d="M11.2371 270.708L22.6463 270.708L22.6463 274.511L11.2371 274.511L11.2371 270.708Z" fill="#ffffff" fill-rule="evenodd" opacity="1" stroke="none"/>
<path d="M15.7801 262.638L19.5831 262.638L19.5831 266.441L15.7801 266.441L15.7801 262.638Z" fill="#ffffff" fill-rule="evenodd" opacity="1" stroke="none"/>
<path d="M5.62785 278.919L9.43092 278.919L9.43092 282.722L5.62785 282.722L5.62785 278.919Z" fill="#ffffff" fill-rule="evenodd" opacity="1" stroke="none"/>
<path d="M24.1453 270.708L27.9484 270.708L27.9484 274.511L24.1453 274.511L24.1453 270.708Z" fill="#ffffff" fill-rule="evenodd" opacity="1" stroke="none"/>
<path d="M33.6217 278.919L37.4248 278.919L37.4248 282.722L33.6217 282.722L33.6217 278.919Z" fill="#ffffff" fill-rule="evenodd" opacity="1" stroke="none"/>
<path d="M5.62785 270.708L9.43092 270.708L9.43092 274.511L5.62785 274.511L5.62785 270.708Z" fill="#ffffff" fill-rule="evenodd" opacity="1" stroke="none"/>
</g>
</g>
</svg>
