<?xml version="1.0" encoding="UTF-8" standalone="no"?>
<!DOCTYPE svg PUBLIC "-//W3C//DTD SVG 1.1//EN" "http://www.w3.org/Graphics/SVG/1.1/DTD/svg11.dtd">
<!-- Created with Vectornator (http://vectornator.io/) -->
<svg height="100%" stroke-miterlimit="10" style="fill-rule:nonzero;clip-rule:evenodd;stroke-linecap:round;stroke-linejoin:round;" version="1.1" viewBox="0 0 648.903 594.074" width="100%" xml:space="preserve" xmlns="http://www.w3.org/2000/svg" xmlns:xlink="http://www.w3.org/1999/xlink">
<defs/>
<g id="Ebene-1">
<path d="M324.284 32.626L592.208 227.284L489.87 542.248L158.698 542.248L56.36 227.284L324.284 32.626Z" fill="none" fill-rule="evenodd" opacity="1" stroke="#000000" stroke-linecap="round" stroke-linejoin="round" stroke-width="4"/>
</g>
<clipPath id="ArtboardFrame">
<rect height="594.074" width="648.903" x="0" y="0"/>
</clipPath>
<g clip-path="url(#ArtboardFrame)" id="Ebene-2">
<g opacity="1">
<path d="M315.878 79.0131L331.902 79.0876L333.658 105.143L314.085 105.143L315.878 79.0131Z" fill="#d5d5d5" fill-rule="evenodd" opacity="1" stroke="#000000" stroke-linecap="round" stroke-linejoin="round" stroke-width="1"/>
<g opacity="1">
<path d="M262.582 0L385.582 0C387.677 0 389.375 1.5929 389.375 3.55785L389.375 76.6709C389.375 78.6358 387.677 80.2287 385.582 80.2287L262.582 80.2287C260.487 80.2287 258.789 78.6358 258.789 76.6709L258.789 3.55785C258.789 1.5929 260.487 0 262.582 0Z" fill="#d5d5d5" fill-rule="evenodd" opacity="1" stroke="#000000" stroke-linecap="round" stroke-linejoin="round" stroke-width="1"/>
<path d="M262.004 2.21293L386.347 2.21293L386.347 74.3051L262.004 74.3051L262.004 2.21293Z" fill="#000000" fill-rule="evenodd" opacity="1" stroke="#000000" stroke-linecap="round" stroke-linejoin="round" stroke-width="1"/>
</g>
<path d="M264.417 5.24834L272.974 5.24834L272.974 9.05141L264.417 9.05141L264.417 5.24834Z" fill="#ffffff" fill-rule="evenodd" opacity="1" stroke="none"/>
<path d="M269.746 21.5289L278.303 21.5289L278.303 25.332L269.746 25.332L269.746 21.5289Z" fill="#ffffff" fill-rule="evenodd" opacity="1" stroke="none"/>
<path d="M280.088 5.24834L288.644 5.24834L288.644 9.05141L280.088 9.05141L280.088 5.24834Z" fill="#ffffff" fill-rule="evenodd" opacity="1" stroke="none"/>
<path d="M289.999 5.28227L301.408 5.28227L301.408 9.08534L289.999 9.08534L289.999 5.28227Z" fill="#ffffff" fill-rule="evenodd" opacity="1" stroke="none"/>
<path d="M279.931 21.5289L291.34 21.5289L291.34 25.332L279.931 25.332L279.931 21.5289Z" fill="#ffffff" fill-rule="evenodd" opacity="1" stroke="none"/>
<path d="M270.026 13.3184L281.435 13.3184L281.435 17.1215L270.026 17.1215L270.026 13.3184Z" fill="#ffffff" fill-rule="evenodd" opacity="1" stroke="none"/>
<path d="M274.569 5.24834L278.372 5.24834L278.372 9.05141L274.569 9.05141L274.569 5.24834Z" fill="#ffffff" fill-rule="evenodd" opacity="1" stroke="none"/>
<path d="M264.417 21.5289L268.22 21.5289L268.22 25.332L264.417 25.332L264.417 21.5289Z" fill="#ffffff" fill-rule="evenodd" opacity="1" stroke="none"/>
<path d="M282.934 13.3184L286.737 13.3184L286.737 17.1215L282.934 17.1215L282.934 13.3184Z" fill="#ffffff" fill-rule="evenodd" opacity="1" stroke="none"/>
<path d="M292.411 21.5289L296.214 21.5289L296.214 25.332L292.411 25.332L292.411 21.5289Z" fill="#ffffff" fill-rule="evenodd" opacity="1" stroke="none"/>
<path d="M264.417 13.3184L268.22 13.3184L268.22 17.1215L264.417 17.1215L264.417 13.3184Z" fill="#ffffff" fill-rule="evenodd" opacity="1" stroke="none"/>
</g>
<g opacity="1">
<path d="M57.0888 254.335L73.1128 254.409L74.869 280.465L55.2957 280.465L57.0888 254.335Z" fill="#d5d5d5" fill-rule="evenodd" opacity="1" stroke="#000000" stroke-linecap="round" stroke-linejoin="round" stroke-width="1"/>
<g opacity="1">
<path d="M3.79281 175.322L126.793 175.322C128.888 175.322 130.586 176.915 130.586 178.88L130.586 251.993C130.586 253.958 128.888 255.55 126.793 255.55L3.79281 255.55C1.6981 255.55 0 253.958 0 251.993L0 178.88C0 176.915 1.6981 175.322 3.79281 175.322Z" fill="#d5d5d5" fill-rule="evenodd" opacity="1" stroke="#000000" stroke-linecap="round" stroke-linejoin="round" stroke-width="1"/>
<path d="M3.21545 177.535L127.558 177.535L127.558 249.627L3.21545 249.627L3.21545 177.535Z" fill="#000000" fill-rule="evenodd" opacity="1" stroke="#000000" stroke-linecap="round" stroke-linejoin="round" stroke-width="1"/>
</g>
<path d="M5.62785 180.57L14.1848 180.57L14.1848 184.373L5.62785 184.373L5.62785 180.57Z" fill="#ffffff" fill-rule="evenodd" opacity="1" stroke="none"/>
<path d="M10.9568 196.851L19.5137 196.851L19.5137 200.654L10.9568 200.654L10.9568 196.851Z" fill="#ffffff" fill-rule="evenodd" opacity="1" stroke="none"/>
<path d="M21.2986 180.57L29.8555 180.57L29.8555 184.373L21.2986 184.373L21.2986 180.57Z" fill="#ffffff" fill-rule="evenodd" opacity="1" stroke="none"/>
<path d="M31.2103 180.604L42.6195 180.604L42.6195 184.407L31.2103 184.407L31.2103 180.604Z" fill="#ffffff" fill-rule="evenodd" opacity="1" stroke="none"/>
<path d="M21.1417 196.851L32.5509 196.851L32.5509 200.654L21.1417 200.654L21.1417 196.851Z" fill="#ffffff" fill-rule="evenodd" opacity="1" stroke="none"/>
<path d="M11.2371 188.64L22.6463 188.64L22.6463 192.443L11.2371 192.443L11.2371 188.64Z" fill="#ffffff" fill-rule="evenodd" opacity="1" stroke="none"/>
<path d="M15.7801 180.57L19.5831 180.57L19.5831 184.373L15.7801 184.373L15.7801 180.57Z" fill="#ffffff" fill-rule="evenodd" opacity="1" stroke="none"/>
<path d="M5.62785 196.851L9.43092 196.851L9.43092 200.654L5.62785 200.654L5.62785 196.851Z" fill="#ffffff" fill-rule="evenodd" opacity="1" stroke="none"/>
<path d="M24.1453 188.64L27.9484 188.64L27.9484 192.443L24.1453 192.443L24.1453 188.64Z" fill="#ffffff" fill-rule="evenodd" opacity="1" stroke="none"/>
<path d="M33.6217 196.851L37.4248 196.851L37.4248 200.654L33.6217 200.654L33.6217 196.851Z" fill="#ffffff" fill-rule="evenodd" opacity="1" stroke="none"/>
<path d="M5.62785 188.64L9.43092 188.64L9.43092 192.443L5.62785 192.443L5.62785 188.64Z" fill="#ffffff" fill-rule="evenodd" opacity="1" stroke="none"/>
</g>
<g opacity="1">
<path d="M150.327 567.941L166.351 568.016L168.108 594.072L148.534 594.072L150.327 567.941Z" fill="#d5d5d5" fill-rule="evenodd" opacity="1" stroke="#000000" stroke-linecap="round" stroke-linejoin="round" stroke-width="1"/>
<g opacity="1">
<path d="M97.0314 488.928L220.032 488.928C222.126 488.928 223.825 490.521 223.825 492.486L223.825 565.599C223.825 567.564 222.126 569.157 220.032 569.157L97.0314 569.157C94.9367 569.157 93.2386 567.564 93.2386 565.599L93.2386 492.486C93.2386 490.521 94.9367 488.928 97.0314 488.928Z" fill="#d5d5d5" fill-rule="evenodd" opacity="1" stroke="#000000" stroke-linecap="round" stroke-linejoin="round" stroke-width="1"/>
<path d="M96.454 491.141L220.796 491.141L220.796 563.234L96.454 563.234L96.454 491.141Z" fill="#000000" fill-rule="evenodd" opacity="1" stroke="#000000" stroke-linecap="round" stroke-linejoin="round" stroke-width="1"/>
</g>
<path d="M98.8664 494.177L107.423 494.177L107.423 497.98L98.8664 497.98L98.8664 494.177Z" fill="#ffffff" fill-rule="evenodd" opacity="1" stroke="none"/>
<path d="M104.195 510.457L112.752 510.457L112.752 514.26L104.195 514.26L104.195 510.457Z" fill="#ffffff" fill-rule="evenodd" opacity="1" stroke="none"/>
<path d="M114.537 494.177L123.094 494.177L123.094 497.98L114.537 497.98L114.537 494.177Z" fill="#ffffff" fill-rule="evenodd" opacity="1" stroke="none"/>
<path d="M124.449 494.211L135.858 494.211L135.858 498.014L124.449 498.014L124.449 494.211Z" fill="#ffffff" fill-rule="evenodd" opacity="1" stroke="none"/>
<path d="M114.38 510.457L125.789 510.457L125.789 514.26L114.38 514.26L114.38 510.457Z" fill="#ffffff" fill-rule="evenodd" opacity="1" stroke="none"/>
<path d="M104.476 502.247L115.885 502.247L115.885 506.05L104.476 506.05L104.476 502.247Z" fill="#ffffff" fill-rule="evenodd" opacity="1" stroke="none"/>
<path d="M109.019 494.177L112.822 494.177L112.822 497.98L109.019 497.98L109.019 494.177Z" fill="#ffffff" fill-rule="evenodd" opacity="1" stroke="none"/>
<path d="M98.8664 510.457L102.669 510.457L102.669 514.26L98.8664 514.26L98.8664 510.457Z" fill="#ffffff" fill-rule="evenodd" opacity="1" stroke="none"/>
<path d="M117.384 502.247L121.187 502.247L121.187 506.05L117.384 506.05L117.384 502.247Z" fill="#ffffff" fill-rule="evenodd" opacity="1" stroke="none"/>
<path d="M126.86 510.457L130.663 510.457L130.663 514.26L126.86 514.26L126.86 510.457Z" fill="#ffffff" fill-rule="evenodd" opacity="1" stroke="none"/>
<path d="M98.8664 502.247L102.669 502.247L102.669 506.05L98.8664 506.05L98.8664 502.247Z" fill="#ffffff" fill-rule="evenodd" opacity="1" stroke="none"/>
</g>
<g opacity="1">
<path d="M575.406 254.335L591.43 254.409L593.186 280.465L573.613 280.465L575.406 254.335Z" fill="#d5d5d5" fill-rule="evenodd" opacity="1" stroke="#000000" stroke-linecap="round" stroke-linejoin="round" stroke-width="1"/>
<g opacity="1">
<path d="M522.11 175.322L645.11 175.322C647.205 175.322 648.903 176.915 648.903 178.88L648.903 251.993C648.903 253.958 647.205 255.55 645.11 255.55L522.11 255.55C520.015 255.55 518.317 253.958 518.317 251.993L518.317 178.88C518.317 176.915 520.015 175.322 522.11 175.322Z" fill="#d5d5d5" fill-rule="evenodd" opacity="1" stroke="#000000" stroke-linecap="round" stroke-linejoin="round" stroke-width="1"/>
<path d="M521.533 177.535L645.875 177.535L645.875 249.627L521.533 249.627L521.533 177.535Z" fill="#000000" fill-rule="evenodd" opacity="1" stroke="#000000" stroke-linecap="round" stroke-linejoin="round" stroke-width="1"/>
</g>
<path d="M523.945 180.57L532.502 180.57L532.502 184.373L523.945 184.373L523.945 180.57Z" fill="#ffffff" fill-rule="evenodd" opacity="1" stroke="none"/>
<path d="M529.274 196.851L537.831 196.851L537.831 200.654L529.274 200.654L529.274 196.851Z" fill="#ffffff" fill-rule="evenodd" opacity="1" stroke="none"/>
<path d="M539.616 180.57L548.173 180.57L548.173 184.373L539.616 184.373L539.616 180.57Z" fill="#ffffff" fill-rule="evenodd" opacity="1" stroke="none"/>
<path d="M549.527 180.604L560.937 180.604L560.937 184.407L549.527 184.407L549.527 180.604Z" fill="#ffffff" fill-rule="evenodd" opacity="1" stroke="none"/>
<path d="M539.459 196.851L550.868 196.851L550.868 200.654L539.459 200.654L539.459 196.851Z" fill="#ffffff" fill-rule="evenodd" opacity="1" stroke="none"/>
<path d="M529.554 188.64L540.963 188.64L540.963 192.443L529.554 192.443L529.554 188.64Z" fill="#ffffff" fill-rule="evenodd" opacity="1" stroke="none"/>
<path d="M534.097 180.57L537.9 180.57L537.9 184.373L534.097 184.373L534.097 180.57Z" fill="#ffffff" fill-rule="evenodd" opacity="1" stroke="none"/>
<path d="M523.945 196.851L527.748 196.851L527.748 200.654L523.945 200.654L523.945 196.851Z" fill="#ffffff" fill-rule="evenodd" opacity="1" stroke="none"/>
<path d="M542.462 188.64L546.265 188.64L546.265 192.443L542.462 192.443L542.462 188.64Z" fill="#ffffff" fill-rule="evenodd" opacity="1" stroke="none"/>
<path d="M551.939 196.851L555.742 196.851L555.742 200.654L551.939 200.654L551.939 196.851Z" fill="#ffffff" fill-rule="evenodd" opacity="1" stroke="none"/>
<path d="M523.945 188.64L527.748 188.64L527.748 192.443L523.945 192.443L523.945 188.64Z" fill="#ffffff" fill-rule="evenodd" opacity="1" stroke="none"/>
</g>
<g opacity="1">
<path d="M480.893 567.941L496.917 568.016L498.673 594.072L479.1 594.072L480.893 567.941Z" fill="#d5d5d5" fill-rule="evenodd" opacity="1" stroke="#000000" stroke-linecap="round" stroke-linejoin="round" stroke-width="1"/>
<g opacity="1">
<path d="M427.597 488.928L550.598 488.928C552.692 488.928 554.39 490.521 554.39 492.486L554.39 565.599C554.39 567.564 552.692 569.157 550.598 569.157L427.597 569.157C425.503 569.157 423.804 567.564 423.804 565.599L423.804 492.486C423.804 490.521 425.503 488.928 427.597 488.928Z" fill="#d5d5d5" fill-rule="evenodd" opacity="1" stroke="#000000" stroke-linecap="round" stroke-linejoin="round" stroke-width="1"/>
<path d="M427.02 491.141L551.362 491.141L551.362 563.234L427.02 563.234L427.02 491.141Z" fill="#000000" fill-rule="evenodd" opacity="1" stroke="#000000" stroke-linecap="round" stroke-linejoin="round" stroke-width="1"/>
</g>
<path d="M429.432 494.177L437.989 494.177L437.989 497.98L429.432 497.98L429.432 494.177Z" fill="#ffffff" fill-rule="evenodd" opacity="1" stroke="none"/>
<path d="M434.761 510.457L443.318 510.457L443.318 514.26L434.761 514.26L434.761 510.457Z" fill="#ffffff" fill-rule="evenodd" opacity="1" stroke="none"/>
<path d="M445.103 494.177L453.66 494.177L453.66 497.98L445.103 497.98L445.103 494.177Z" fill="#ffffff" fill-rule="evenodd" opacity="1" stroke="none"/>
<path d="M455.015 494.211L466.424 494.211L466.424 498.014L455.015 498.014L455.015 494.211Z" fill="#ffffff" fill-rule="evenodd" opacity="1" stroke="none"/>
<path d="M444.946 510.457L456.355 510.457L456.355 514.26L444.946 514.26L444.946 510.457Z" fill="#ffffff" fill-rule="evenodd" opacity="1" stroke="none"/>
<path d="M435.042 502.247L446.451 502.247L446.451 506.05L435.042 506.05L435.042 502.247Z" fill="#ffffff" fill-rule="evenodd" opacity="1" stroke="none"/>
<path d="M439.585 494.177L443.388 494.177L443.388 497.98L439.585 497.98L439.585 494.177Z" fill="#ffffff" fill-rule="evenodd" opacity="1" stroke="none"/>
<path d="M429.432 510.457L433.235 510.457L433.235 514.26L429.432 514.26L429.432 510.457Z" fill="#ffffff" fill-rule="evenodd" opacity="1" stroke="none"/>
<path d="M447.95 502.247L451.753 502.247L451.753 506.05L447.95 506.05L447.95 502.247Z" fill="#ffffff" fill-rule="evenodd" opacity="1" stroke="none"/>
<path d="M457.426 510.457L461.229 510.457L461.229 514.26L457.426 514.26L457.426 510.457Z" fill="#ffffff" fill-rule="evenodd" opacity="1" stroke="none"/>
<path d="M429.432 502.247L433.235 502.247L433.235 506.05L429.432 506.05L429.432 502.247Z" fill="#ffffff" fill-rule="evenodd" opacity="1" stroke="none"/>
</g>
</g>
</svg>
